{
	"asset":{
		"generator":"Khronos glTF Blender I/O v4.2.57",
		"version":"2.0"
	},
	"scene":0,
	"scenes":[
		{
			"name":"Scene",
			"nodes":[
				0
			]
		}
	],
	"nodes":[
		{
			"mesh":0,
			"name":"Sphere.001",
			"translation":[
				-0.3145267367362976,
				3.161637544631958,
				3.931886911392212
			]
		}
	],
	"materials":[
		{
			"doubleSided":true,
			"name":"blanket",
			"pbrMetallicRoughness":{
				"baseColorFactor":[
					0.6652703881263733,
					0.5941373705863953,
					0.34244436025619507,
					1
				],
				"metallicFactor":0,
				"roughnessFactor":0.5
			}
		}
	],
	"meshes":[
		{
			"name":"Sphere.001",
			"primitives":[
				{
					"attributes":{
						"POSITION":0,
						"NORMAL":1,
						"TEXCOORD_0":2
					},
					"indices":3,
					"material":0
				}
			]
		}
	],
	"accessors":[
		{
			"bufferView":0,
			"componentType":5126,
			"count":1915,
			"max":[
				1.1709063053131104,
				0.6521293520927429,
				1.0490119457244873
			],
			"min":[
				-1.1819301843643188,
				-1.1652436256408691,
				-1.324278712272644
			],
			"type":"VEC3"
		},
		{
			"bufferView":1,
			"componentType":5126,
			"count":1915,
			"type":"VEC3"
		},
		{
			"bufferView":2,
			"componentType":5126,
			"count":1915,
			"type":"VEC2"
		},
		{
			"bufferView":3,
			"componentType":5123,
			"count":7980,
			"type":"SCALAR"
		}
	],
	"bufferViews":[
		{
			"buffer":0,
			"byteLength":22980,
			"byteOffset":0,
			"target":34962
		},
		{
			"buffer":0,
			"byteLength":22980,
			"byteOffset":22980,
			"target":34962
		},
		{
			"buffer":0,
			"byteLength":15320,
			"byteOffset":45960,
			"target":34962
		},
		{
			"buffer":0,
			"byteLength":15960,
			"byteOffset":61280,
			"target":34963
		}
	],
	"buffers":[
		{
			"byteLength":77240,
			"uri":"blanket.bin"
		}
	]
}
