{
	"asset":{
		"generator":"Khronos glTF Blender I/O v4.2.57",
		"version":"2.0"
	},
	"scene":0,
	"scenes":[
		{
			"name":"Scene",
			"nodes":[
				0
			]
		}
	],
	"nodes":[
		{
			"mesh":0,
			"name":"Cylinder",
			"translation":[
				-0.46695476770401,
				6.675999641418457,
				-0.015828609466552734
			]
		}
	],
	"materials":[
		{
			"doubleSided":true,
			"name":"Material.008",
			"pbrMetallicRoughness":{
				"baseColorFactor":[
					0.16971389949321747,
					0.15828680992126465,
					0.1267504096031189,
					1
				],
				"metallicFactor":0.3913043439388275,
				"roughnessFactor":0.1666666567325592
			}
		}
	],
	"meshes":[
		{
			"name":"Cylinder",
			"primitives":[
				{
					"attributes":{
						"POSITION":0,
						"NORMAL":1,
						"TEXCOORD_0":2
					},
					"indices":3,
					"material":0
				}
			]
		}
	],
	"accessors":[
		{
			"bufferView":0,
			"componentType":5126,
			"count":293,
			"max":[
				0.9823018312454224,
				0.8710606098175049,
				1.0152058601379395
			],
			"min":[
				-1.0176981687545776,
				-6.675426006317139,
				-0.9847941398620605
			],
			"type":"VEC3"
		},
		{
			"bufferView":1,
			"componentType":5126,
			"count":293,
			"type":"VEC3"
		},
		{
			"bufferView":2,
			"componentType":5126,
			"count":293,
			"type":"VEC2"
		},
		{
			"bufferView":3,
			"componentType":5123,
			"count":936,
			"type":"SCALAR"
		}
	],
	"bufferViews":[
		{
			"buffer":0,
			"byteLength":3516,
			"byteOffset":0,
			"target":34962
		},
		{
			"buffer":0,
			"byteLength":3516,
			"byteOffset":3516,
			"target":34962
		},
		{
			"buffer":0,
			"byteLength":2344,
			"byteOffset":7032,
			"target":34962
		},
		{
			"buffer":0,
			"byteLength":1872,
			"byteOffset":9376,
			"target":34963
		}
	],
	"buffers":[
		{
			"byteLength":11248,
			"uri":"lampstand.bin"
		}
	]
}
