{
	"asset":{
		"generator":"Khronos glTF Blender I/O v4.2.57",
		"version":"2.0"
	},
	"scene":0,
	"scenes":[
		{
			"name":"Scene",
			"nodes":[
				0
			]
		}
	],
	"nodes":[
		{
			"mesh":0,
			"name":"Cylinder.003",
			"translation":[
				-0.46695476770401,
				6.675999641418457,
				-0.015828609466552734
			]
		}
	],
	"materials":[
		{
			"doubleSided":true,
			"name":"Material.001",
			"pbrMetallicRoughness":{
				"baseColorFactor":[
					0.6389946937561035,
					0.6962664723396301,
					0.49562931060791016,
					1
				],
				"metallicFactor":0,
				"roughnessFactor":0.9057971239089966
			}
		}
	],
	"meshes":[
		{
			"name":"Cylinder.001",
			"primitives":[
				{
					"attributes":{
						"POSITION":0,
						"NORMAL":1,
						"TEXCOORD_0":2
					},
					"indices":3,
					"material":0
				}
			]
		}
	],
	"accessors":[
		{
			"bufferView":0,
			"componentType":5126,
			"count":896,
			"max":[
				1.270656704902649,
				1.122664451599121,
				1.270656943321228
			],
			"min":[
				-1.270656704902649,
				-1.027063012123108,
				-1.2706568241119385
			],
			"type":"VEC3"
		},
		{
			"bufferView":1,
			"componentType":5126,
			"count":896,
			"type":"VEC3"
		},
		{
			"bufferView":2,
			"componentType":5126,
			"count":896,
			"type":"VEC2"
		},
		{
			"bufferView":3,
			"componentType":5123,
			"count":1524,
			"type":"SCALAR"
		}
	],
	"bufferViews":[
		{
			"buffer":0,
			"byteLength":10752,
			"byteOffset":0,
			"target":34962
		},
		{
			"buffer":0,
			"byteLength":10752,
			"byteOffset":10752,
			"target":34962
		},
		{
			"buffer":0,
			"byteLength":7168,
			"byteOffset":21504,
			"target":34962
		},
		{
			"buffer":0,
			"byteLength":3048,
			"byteOffset":28672,
			"target":34963
		}
	],
	"buffers":[
		{
			"byteLength":31720,
			"uri":"lampshade.bin"
		}
	]
}
