{
	"asset":{
		"generator":"Khronos glTF Blender I/O v4.2.57",
		"version":"2.0"
	},
	"scene":0,
	"scenes":[
		{
			"name":"Scene",
			"nodes":[
				0
			]
		}
	],
	"nodes":[
		{
			"mesh":0,
			"name":"Cube.003",
			"rotation":[
				0,
				-0.25401636958122253,
				0,
				0.9671999216079712
			],
			"scale":[
				0.7268580794334412,
				0.04231267049908638,
				0.7268580794334412
			],
			"translation":[
				-0.01873779296875,
				0.037935614585876465,
				-0.0022644996643066406
			]
		}
	],
	"materials":[
		{
			"doubleSided":true,
			"name":"Material.009",
			"pbrMetallicRoughness":{
				"baseColorFactor":[
					0.49634093046188354,
					0.49634093046188354,
					0.49634093046188354,
					1
				],
				"metallicFactor":0.3768116235733032,
				"roughnessFactor":0.239130437374115
			}
		}
	],
	"meshes":[
		{
			"name":"Cube.003",
			"primitives":[
				{
					"attributes":{
						"POSITION":0,
						"NORMAL":1,
						"TEXCOORD_0":2
					},
					"indices":3,
					"material":0
				}
			]
		}
	],
	"accessors":[
		{
			"bufferView":0,
			"componentType":5126,
			"count":80,
			"max":[
				1,
				1.9472817182540894,
				1
			],
			"min":[
				-1,
				-1,
				-1
			],
			"type":"VEC3"
		},
		{
			"bufferView":1,
			"componentType":5126,
			"count":80,
			"type":"VEC3"
		},
		{
			"bufferView":2,
			"componentType":5126,
			"count":80,
			"type":"VEC2"
		},
		{
			"bufferView":3,
			"componentType":5123,
			"count":300,
			"type":"SCALAR"
		}
	],
	"bufferViews":[
		{
			"buffer":0,
			"byteLength":960,
			"byteOffset":0,
			"target":34962
		},
		{
			"buffer":0,
			"byteLength":960,
			"byteOffset":960,
			"target":34962
		},
		{
			"buffer":0,
			"byteLength":640,
			"byteOffset":1920,
			"target":34962
		},
		{
			"buffer":0,
			"byteLength":600,
			"byteOffset":2560,
			"target":34963
		}
	],
	"buffers":[
		{
			"byteLength":3160,
			"uri":"magazine.bin"
		}
	]
}
