{
	"asset":{
		"generator":"Khronos glTF Blender I/O v4.2.57",
		"version":"2.0"
	},
	"scene":0,
	"scenes":[
		{
			"name":"Scene",
			"nodes":[
				0
			]
		}
	],
	"nodes":[
		{
			"mesh":0,
			"name":"Sphere",
			"translation":[
				-0.3145267367362976,
				3.161637544631958,
				3.931886911392212
			]
		}
	],
	"materials":[
		{
			"doubleSided":true,
			"name":"couch",
			"pbrMetallicRoughness":{
				"metallicFactor":0,
				"roughnessFactor":0.9637681245803833
			}
		}
	],
	"meshes":[
		{
			"name":"Sphere.007",
			"primitives":[
				{
					"attributes":{
						"POSITION":0,
						"NORMAL":1,
						"TEXCOORD_0":2
					},
					"indices":3,
					"material":0
				}
			]
		}
	],
	"accessors":[
		{
			"bufferView":0,
			"componentType":5126,
			"count":8771,
			"max":[
				2.2167723178863525,
				1.9459962844848633,
				1.0023443698883057
			],
			"min":[
				-1.502201795578003,
				-2.5916566848754883,
				-8.030909538269043
			],
			"type":"VEC3"
		},
		{
			"bufferView":1,
			"componentType":5126,
			"count":8771,
			"type":"VEC3"
		},
		{
			"bufferView":2,
			"componentType":5126,
			"count":8771,
			"type":"VEC2"
		},
		{
			"bufferView":3,
			"componentType":5123,
			"count":44466,
			"type":"SCALAR"
		}
	],
	"bufferViews":[
		{
			"buffer":0,
			"byteLength":105252,
			"byteOffset":0,
			"target":34962
		},
		{
			"buffer":0,
			"byteLength":105252,
			"byteOffset":105252,
			"target":34962
		},
		{
			"buffer":0,
			"byteLength":70168,
			"byteOffset":210504,
			"target":34962
		},
		{
			"buffer":0,
			"byteLength":88932,
			"byteOffset":280672,
			"target":34963
		}
	],
	"buffers":[
		{
			"byteLength":369604,
			"uri":"sofaREAL.bin"
		}
	]
}
