{
	"asset":{
		"generator":"Khronos glTF Blender I/O v4.2.57",
		"version":"2.0"
	},
	"scene":0,
	"scenes":[
		{
			"name":"Scene",
			"nodes":[
				0
			]
		}
	],
	"nodes":[
		{
			"mesh":0,
			"name":"Cylinder.002",
			"rotation":[
				0,
				0.2143913358449936,
				0,
				0.9767478704452515
			],
			"scale":[
				0.1513485461473465,
				0.168440580368042,
				0.1513485461473465
			],
			"translation":[
				0.7208445072174072,
				1.09621262550354,
				1.6858739852905273
			]
		}
	],
	"materials":[
		{
			"doubleSided":true,
			"name":"Material.003",
			"pbrMetallicRoughness":{
				"baseColorTexture":{
					"index":0
				},
				"metallicFactor":0,
				"roughnessFactor":0.5
			}
		}
	],
	"meshes":[
		{
			"name":"Cylinder.007",
			"primitives":[
				{
					"attributes":{
						"POSITION":0,
						"NORMAL":1,
						"TEXCOORD_0":2
					},
					"indices":3,
					"material":0
				}
			]
		}
	],
	"textures":[
		{
			"sampler":0,
			"source":0
		}
	],
	"images":[
		{
			"mimeType":"image/png",
			"name":"wood",
			"uri":"wood.png"
		}
	],
	"accessors":[
		{
			"bufferView":0,
			"componentType":5126,
			"count":2752,
			"max":[
				13.831399917602539,
				5.669145584106445,
				5.73687744140625
			],
			"min":[
				-12.582112312316895,
				-6.425712585449219,
				-30.166658401489258
			],
			"type":"VEC3"
		},
		{
			"bufferView":1,
			"componentType":5126,
			"count":2752,
			"type":"VEC3"
		},
		{
			"bufferView":2,
			"componentType":5126,
			"count":2752,
			"type":"VEC2"
		},
		{
			"bufferView":3,
			"componentType":5123,
			"count":4368,
			"type":"SCALAR"
		}
	],
	"bufferViews":[
		{
			"buffer":0,
			"byteLength":33024,
			"byteOffset":0,
			"target":34962
		},
		{
			"buffer":0,
			"byteLength":33024,
			"byteOffset":33024,
			"target":34962
		},
		{
			"buffer":0,
			"byteLength":22016,
			"byteOffset":66048,
			"target":34962
		},
		{
			"buffer":0,
			"byteLength":8736,
			"byteOffset":88064,
			"target":34963
		}
	],
	"samplers":[
		{
			"magFilter":9729,
			"minFilter":9987,
			"wrapS":33071,
			"wrapT":33071
		}
	],
	"buffers":[
		{
			"byteLength":96800,
			"uri":"tableBIG.bin"
		}
	]
}
