{
	"asset":{
		"generator":"Khronos glTF Blender I/O v4.2.57",
		"version":"2.0"
	},
	"scene":0,
	"scenes":[
		{
			"name":"Scene",
			"nodes":[
				0
			]
		}
	],
	"nodes":[
		{
			"mesh":0,
			"name":"Cylinder.001",
			"rotation":[
				0,
				0.2143913358449936,
				0,
				0.9767478704452515
			],
			"scale":[
				0.13236740231513977,
				0.1172819659113884,
				0.13236740231513977
			],
			"translation":[
				3.810084342956543,
				1.0762696266174316,
				3.009328603744507
			]
		}
	],
	"materials":[
		{
			"doubleSided":true,
			"name":"Material.002",
			"pbrMetallicRoughness":{
				"baseColorFactor":[
					0.6209232211112976,
					0.3562193512916565,
					0.08042238652706146,
					1
				],
				"metallicFactor":0.47826087474823,
				"roughnessFactor":0.7463768124580383
			}
		}
	],
	"meshes":[
		{
			"name":"Cylinder.003",
			"primitives":[
				{
					"attributes":{
						"POSITION":0,
						"NORMAL":1,
						"TEXCOORD_0":2
					},
					"indices":3,
					"material":0
				}
			]
		}
	],
	"accessors":[
		{
			"bufferView":0,
			"componentType":5126,
			"count":2752,
			"max":[
				13.556404113769531,
				2.962498664855957,
				18.054174423217773
			],
			"min":[
				-12.857108116149902,
				-9.132359504699707,
				-17.849361419677734
			],
			"type":"VEC3"
		},
		{
			"bufferView":1,
			"componentType":5126,
			"count":2752,
			"type":"VEC3"
		},
		{
			"bufferView":2,
			"componentType":5126,
			"count":2752,
			"type":"VEC2"
		},
		{
			"bufferView":3,
			"componentType":5123,
			"count":4368,
			"type":"SCALAR"
		}
	],
	"bufferViews":[
		{
			"buffer":0,
			"byteLength":33024,
			"byteOffset":0,
			"target":34962
		},
		{
			"buffer":0,
			"byteLength":33024,
			"byteOffset":33024,
			"target":34962
		},
		{
			"buffer":0,
			"byteLength":22016,
			"byteOffset":66048,
			"target":34962
		},
		{
			"buffer":0,
			"byteLength":8736,
			"byteOffset":88064,
			"target":34963
		}
	],
	"buffers":[
		{
			"byteLength":96800,
			"uri":"table.bin"
		}
	]
}
