{
	"asset":{
		"generator":"Khronos glTF Blender I/O v4.2.57",
		"version":"2.0"
	},
	"scene":0,
	"scenes":[
		{
			"name":"Scene",
			"nodes":[
				0
			]
		}
	],
	"nodes":[
		{
			"mesh":0,
			"name":"Cube.002",
			"scale":[
				0.39827418327331543,
				0.37870174646377563,
				0.4855291247367859
			],
			"translation":[
				4.045231819152832,
				2.33020281791687,
				-3.0568790435791016
			]
		}
	],
	"materials":[
		{
			"doubleSided":true,
			"name":"Material.005",
			"pbrMetallicRoughness":{
				"baseColorFactor":[
					0.3487614393234253,
					0.8658624887466431,
					0.8875710964202881,
					1
				],
				"metallicFactor":0.37681201100349426,
				"roughnessFactor":0.2971014380455017
			}
		}
	],
	"meshes":[
		{
			"name":"Cube.002",
			"primitives":[
				{
					"attributes":{
						"POSITION":0,
						"NORMAL":1,
						"TEXCOORD_0":2
					},
					"indices":3,
					"material":0
				}
			]
		}
	],
	"accessors":[
		{
			"bufferView":0,
			"componentType":5126,
			"count":1372,
			"max":[
				2.413428544998169,
				2.4682819843292236,
				0.8847638368606567
			],
			"min":[
				-0.8900064826011658,
				-0.9535015821456909,
				-2.7837164402008057
			],
			"type":"VEC3"
		},
		{
			"bufferView":1,
			"componentType":5126,
			"count":1372,
			"type":"VEC3"
		},
		{
			"bufferView":2,
			"componentType":5126,
			"count":1372,
			"type":"VEC2"
		},
		{
			"bufferView":3,
			"componentType":5123,
			"count":5280,
			"type":"SCALAR"
		}
	],
	"bufferViews":[
		{
			"buffer":0,
			"byteLength":16464,
			"byteOffset":0,
			"target":34962
		},
		{
			"buffer":0,
			"byteLength":16464,
			"byteOffset":16464,
			"target":34962
		},
		{
			"buffer":0,
			"byteLength":10976,
			"byteOffset":32928,
			"target":34962
		},
		{
			"buffer":0,
			"byteLength":10560,
			"byteOffset":43904,
			"target":34963
		}
	],
	"buffers":[
		{
			"byteLength":54464,
			"uri":"vases.bin"
		}
	]
}
